<?xml version="1.0" encoding="utf-8"?>
<svg viewBox="-3738.622 -1281.899 5668.661 1658.88" xmlns="http://www.w3.org/2000/svg">
  <g transform="matrix(18.452499, 0, 0, 18.452499, 177.052249, -1374.161977)">
    <g>
      <path d="M78.4,66.5c-5.5,4.8-9.9,15.2-9.9,15.2s-6.9-11.4-12.9-15.3c-9.5-6.1-13.6-6.2-13.6-6.2V65c0,0,7.8,1.2,11.7,4.6   c8.2,7.1,14.8,18.5,14.8,18.5S74.4,75,80.1,70.5C88.1,64.3,95,65,95,65v-4.8C95,60.1,85.1,60.7,78.4,66.5z" fill="#ffffff" style=""/>
      <path d="M42,80c-6.4-3.6-17.8-4.3-17.8-4.3s8.7-10.1,10.5-17C37.5,47.9,36.2,44,36.2,44l-4.6,1.6c0,0,1.3,7.7-0.6,12.4   c-4.1,9.9-13,19.8-13,19.8s14.6,1.3,20.7,5.1c8.6,5.4,10.2,12,10.2,12l4.6-1.6C53.5,93.4,49.7,84.4,42,80z" fill="#ffffff" style=""/>
      <path d="M35.3,36.8c11.3-0.9,14.6-3.4,14.6-3.4l-3-3.8c0,0-6.9,3.7-12.1,3.4c-10.9-0.6-23.3-5.6-23.3-5.6s3.5,14,1.8,20.9   C10.9,58.2,5,61.8,5,61.8l3,3.8c0,0,7.5-6.5,9.1-15.1c1.3-7.1-1.7-18-1.7-18S28,37.4,35.3,36.8z" fill="#ffffff" style=""/>
      <path d="M37.4,17.8c7.3-1.1,16.7-7.4,16.7-7.4s-0.6,13.2,2.4,19.8c4.6,10.2,8,12.5,8,12.5l2.7-4c0,0-5.9-5.2-7.3-10.2   C56.9,18.2,57.7,5,57.7,5s-12.3,7.8-19.5,8.5c-10.2,1-15.6-3.3-15.6-3.3l-2.7,4.1C19.9,14.2,28.6,19.1,37.4,17.8z" fill="#ffffff" style=""/>
      <path d="M65,60.5c0,0,3.1-7.2,7.4-10.1c9-6.1,21.9-9.7,21.9-9.7s-11.5-8.9-14.5-15.4c-4.2-9.1-1.9-15.6-1.9-15.6l-4.8-1.2   c0,0-1.9,9.6,2.2,17.4c3.4,6.4,12.5,13.2,12.5,13.2S75,42.9,69.6,47.8c-8.3,7.6-9.4,11.5-9.4,11.5L65,60.5z" fill="#ffffff" style=""/>
    </g>
    <desc>Created with Snap</desc>
  </g>
  <g transform="matrix(1, 0, 0, 1, -3780.605525, -94.059419)">
    <g transform="matrix(1.024,0,0,-1.024,0,0)">
      <path d="M41 0L41 700L207 700Q292 700 331 660Q370 621 370 539L370 511Q370 457 352 423Q335 389 299 374L299 372Q381 344 381 226L381 166Q381 85 338 42Q296 0 214 0L41 0ZM151 415L194 415Q227 415 243 432Q260 449 260 489L260 528Q260 566 246 583Q233 600 204 600L151 600L151 415ZM151 100L214 100Q243 100 257 115Q271 131 271 169L271 230Q271 278 254 296Q238 315 200 315L151 315L151 100ZM445 0L445 700L608 700Q693 700 732 660Q771 621 771 539L771 496Q771 387 699 358L699 356Q739 344 755 307Q772 270 772 208L772 85Q772 55 774 36Q776 18 784 0L672 0Q666 17 664 32Q662 47 662 86L662 214Q662 262 646 281Q631 300 593 300L555 300L555 0L445 0ZM555 400L595 400Q628 400 644 417Q661 434 661 474L661 528Q661 566 647 583Q634 600 605 600L555 600L555 400ZM848 0L848 700L958 700L958 0L848 0ZM1196 -10Q1116 -10 1074 35Q1032 81 1032 166L1032 534Q1032 619 1074 664Q1116 710 1196 710Q1276 710 1318 664Q1360 619 1360 534L1360 474L1256 474L1256 541Q1256 610 1199 610Q1142 610 1142 541L1142 158Q1142 90 1199 90Q1256 90 1256 158L1256 295L1201 295L1201 395L1360 395L1360 166Q1360 81 1318 35Q1276 -10 1196 -10ZM1431 0L1431 700L1541 700L1541 415L1659 415L1659 700L1769 700L1769 0L1659 0L1659 315L1541 315L1541 0L1431 0ZM1937 0L1937 600L1822 600L1822 700L2162 700L2162 600L2047 600L2047 0L1937 0ZM2215 0L2215 700L2381 700Q2466 700 2505 660Q2544 621 2544 539L2544 511Q2544 457 2526 423Q2509 389 2473 374L2473 372Q2555 344 2555 226L2555 166Q2555 85 2512 42Q2470 0 2388 0L2215 0ZM2325 415L2368 415Q2401 415 2417 432Q2434 449 2434 489L2434 528Q2434 566 2420 583Q2407 600 2378 600L2325 600L2325 415ZM2325 100L2388 100Q2417 100 2431 115Q2445 131 2445 169L2445 230Q2445 278 2428 296Q2412 315 2374 315L2325 315L2325 100ZM2619 0L2619 700L2919 700L2919 600L2729 600L2729 415L2880 415L2880 315L2729 315L2729 100L2919 100L2919 0L2619 0ZM3068 0L3068 600L2953 600L2953 700L3293 700L3293 600L3178 600L3178 0L3068 0ZM3489 -10Q3409 -10 3368 35Q3327 81 3327 166L3327 206L3431 206L3431 158Q3431 90 3488 90Q3516 90 3530 106Q3545 123 3545 160Q3545 204 3525 237Q3505 271 3451 318Q3383 378 3356 426Q3329 475 3329 536Q3329 619 3371 664Q3413 710 3493 710Q3572 710 3612 664Q3653 619 3653 534L3653 505L3549 505L3549 541Q3549 577 3535 593Q3521 610 3494 610Q3439 610 3439 543Q3439 505 3459 472Q3480 439 3534 392Q3603 332 3629 283Q3655 234 3655 168Q3655 82 3612 36Q3570 -10 3489 -10Z" fill="#ffffff" style=""/>
    </g>
  </g>
</svg>